<?xml version="1.0" encoding="UTF-8" ?>
<!DOCTYPE svg PUBLIC "-//W3C//DTD SVG 1.1//EN" "http://www.w3.org/Graphics/SVG/1.1/DTD/svg11.dtd">
<svg width="225pt" height="60pt" viewBox="0 0 225 60" version="1.1" xmlns="http://www.w3.org/2000/svg">

<path fill="url(#paint0_radial_650_1849)" opacity="1.00" d=" M 200.17 17.75 C 202.36 14.02 205.35 10.68 207.94 7.16 C 211.78 7.34 215.63 7.29 219.47 7.15 C 215.14 13.39 210.15 19.17 205.96 25.52 C 204.00 22.95 201.87 20.50 200.17 17.75 Z" />
<path fill="url(#paint0_radial_650_1849)" opacity="1.00" d=" M 7.36 12.48 C 10.08 8.99 14.88 8.44 19.00 8.37 C 23.74 8.39 29.08 8.06 33.08 11.10 C 36.52 14.08 36.65 19.00 36.87 23.20 C 33.48 23.20 30.09 23.19 26.69 23.21 C 26.29 21.54 26.36 19.35 24.64 18.37 C 22.37 17.34 19.62 17.40 17.31 18.29 C 15.16 19.65 15.55 22.54 15.31 24.72 C 15.29 27.40 15.28 30.08 15.31 32.76 C 15.48 34.68 15.31 36.83 16.51 38.48 C 18.66 40.13 21.75 39.95 24.22 39.19 C 26.42 38.51 26.32 35.88 26.72 34.04 C 30.21 34.14 33.70 34.11 37.19 34.09 C 37.01 37.91 36.86 42.16 34.10 45.13 C 31.38 48.29 26.95 48.96 23.01 48.95 C 18.20 48.92 12.80 49.38 8.74 46.28 C 4.80 43.03 4.54 37.45 4.42 32.73 C 4.41 30.07 4.41 27.41 4.42 24.74 C 4.51 20.55 4.69 15.94 7.36 12.48 Z" />
<path fill="url(#paint0_radial_650_1849)" opacity="1.00" d=" M 43.40 8.83 C 49.93 8.95 56.47 8.63 62.98 9.01 C 66.54 9.35 70.81 9.77 73.00 13.02 C 75.27 16.46 74.62 20.83 74.65 24.73 C 74.30 28.61 71.20 31.11 67.66 32.12 C 68.60 32.35 69.54 32.56 70.49 32.76 C 76.36 35.86 74.40 43.17 74.66 48.55 C 71.15 48.48 67.65 48.48 64.14 48.55 C 64.03 45.12 64.46 41.61 63.58 38.26 C 60.90 35.93 56.99 37.20 53.77 36.87 C 53.78 40.76 53.78 44.65 53.75 48.55 C 50.31 48.49 46.86 48.48 43.42 48.55 C 43.39 43.30 43.41 38.04 43.41 32.78 C 43.41 30.09 43.41 27.41 43.41 24.73 C 43.40 19.43 43.41 14.13 43.40 8.83 M 53.77 17.66 C 53.77 20.00 53.77 22.34 53.77 24.69 C 53.77 25.80 53.77 26.92 53.78 28.03 C 57.33 27.49 63.29 29.63 64.31 24.68 C 63.91 22.60 64.69 19.78 62.80 18.28 C 59.94 17.17 56.76 17.85 53.77 17.66 Z" />
<path fill="url(#paint0_radial_650_1849)" opacity="1.00" d=" M 85.50 24.68 C 87.01 19.41 88.53 14.13 89.98 8.84 C 95.32 8.84 100.65 8.84 105.99 8.85 C 107.39 14.15 108.90 19.42 110.32 24.72 C 111.06 27.40 111.80 30.08 112.54 32.75 C 114.02 38.01 115.41 43.28 116.91 48.54 C 113.19 48.49 109.46 48.48 105.74 48.55 C 105.16 46.23 104.60 43.90 104.08 41.57 C 99.96 41.57 95.84 41.59 91.72 41.52 C 91.14 43.87 90.53 46.22 89.88 48.55 C 86.21 48.47 82.53 48.47 78.86 48.57 C 80.22 43.28 81.77 38.03 83.27 32.77 C 89.65 32.09 95.84 34.25 102.21 33.77 C 101.56 30.72 100.80 27.70 100.08 24.67 C 99.45 21.98 98.94 19.25 98.29 16.57 C 96.47 18.85 96.59 21.98 95.79 24.67 C 92.36 24.64 88.93 24.66 85.50 24.68 Z" />
<path fill="url(#paint0_radial_650_1849)" opacity="1.00" d=" M 113.60 8.83 C 120.77 8.84 127.95 8.87 135.13 8.81 C 137.45 11.55 139.72 14.35 141.95 17.17 C 139.36 17.10 136.77 17.06 134.18 17.02 C 134.16 19.57 134.16 22.13 134.15 24.68 C 130.63 24.64 127.11 24.64 123.59 24.69 C 123.58 22.17 123.60 19.65 123.67 17.13 C 120.31 17.06 116.96 17.08 113.60 17.10 C 113.59 14.35 113.59 11.59 113.60 8.83 Z" />
<path fill="url(#paint0_radial_650_1849)" opacity="1.00" d=" M 138.98 8.77 C 150.37 8.91 161.76 8.82 173.15 8.81 C 175.18 11.63 177.42 14.30 179.40 17.17 C 173.27 17.08 167.13 16.98 161.01 17.17 C 160.81 18.87 160.89 20.59 160.88 22.31 C 157.82 22.29 154.76 22.29 151.71 22.32 C 151.72 20.57 151.72 18.82 151.73 17.07 C 149.76 17.06 147.80 17.09 145.83 17.13 C 143.50 14.38 141.22 11.59 138.98 8.77 Z" />
<path fill="url(#paint0_radial_650_1849)" opacity="1.00" d=" M 123.60 32.77 C 127.11 32.78 130.63 32.78 134.14 32.78 C 134.17 38.02 134.15 43.27 134.16 48.51 C 130.64 48.49 127.12 48.49 123.60 48.55 C 123.58 43.29 123.58 38.03 123.60 32.77 Z" />
<path fill="url(#paint0_radial_650_1849)" opacity="1.00" d=" M 199.90 39.92 C 201.83 37.19 203.94 34.58 205.89 31.86 C 210.77 39.10 216.44 45.78 221.45 52.93 C 217.59 52.68 213.72 52.67 209.87 52.87 C 206.49 48.60 203.43 44.08 199.90 39.92 Z" />
<path fill="url(#paint0_radial_650_1849)" opacity="1.00" d=" M 151.68 48.63 C 151.77 44.10 151.62 39.58 151.79 35.05 C 154.81 35.26 157.84 35.23 160.86 35.15 C 160.88 36.85 160.90 38.56 160.91 40.27 C 167.11 40.20 173.32 40.43 179.52 40.09 C 177.36 42.95 175.43 46.01 172.97 48.61 C 165.87 48.63 158.77 48.55 151.68 48.63 Z" />

<path fill="url(#paint0_radial_650_1849)" opacity="1.00" d=" M 175.47 7.12 C 179.29 7.30 183.11 7.38 186.92 7.10 C 192.55 14.25 197.97 21.56 203.36 28.88 C 197.10 36.75 191.29 44.95 185.09 52.86 C 181.23 52.65 177.36 52.71 173.50 52.89 C 179.44 44.79 185.47 36.75 191.67 28.85 C 186.34 21.55 180.68 14.50 175.47 7.12 Z" />
<path fill="url(#paint0_radial_650_1849)" opacity="1.00" d=" M 15.31 24.72 C 24.68 24.62 34.04 24.86 43.41 24.73 C 43.41 27.41 43.41 30.09 43.41 32.78 C 34.04 32.60 24.67 32.82 15.31 32.76 C 15.28 30.08 15.29 27.40 15.31 24.72 Z" />
<path fill="url(#paint0_radial_650_1849)" opacity="1.00" d=" M 53.77 24.69 C 57.28 24.65 60.79 24.64 64.31 24.68 C 63.29 29.63 57.33 27.49 53.78 28.03 C 53.77 26.92 53.77 25.80 53.77 24.69 Z" />
<path fill="url(#paint0_radial_650_1849)" opacity="1.00" d=" M 123.59 24.69 C 127.11 24.64 130.63 24.64 134.15 24.68 C 151.13 24.60 168.11 24.72 185.09 24.61 C 186.13 26.04 187.17 27.47 188.20 28.91 C 187.11 30.22 186.03 31.55 184.95 32.88 C 168.02 32.66 151.08 32.85 134.14 32.78 C 130.63 32.78 127.11 32.78 123.60 32.77 C 119.91 32.78 116.23 32.79 112.54 32.75 C 111.80 30.08 111.06 27.40 110.32 24.72 C 114.74 24.59 119.17 24.67 123.59 24.69 Z" />
<path fill="url(#paint0_radial_650_1849)" opacity="1.00" d=" M 0.00 24.63 C 1.47 24.66 2.95 24.70 4.42 24.74 C 4.41 27.41 4.41 30.07 4.42 32.73 C 2.95 32.76 1.47 32.79 0.00 32.82 L 0.00 24.63 Z" />
<path fill="url(#paint0_radial_650_1849)" opacity="1.00" d=" M 74.65 24.73 C 78.26 24.62 81.88 24.66 85.50 24.68 C 88.93 24.66 92.36 24.64 95.79 24.67 C 97.22 24.67 98.65 24.67 100.08 24.67 C 100.80 27.70 101.56 30.72 102.21 33.77 C 95.84 34.25 89.65 32.09 83.27 32.77 C 79.01 32.77 74.75 32.84 70.49 32.76 C 69.54 32.56 68.60 32.35 67.66 32.12 C 71.20 31.11 74.30 28.61 74.65 24.73 Z" />

<defs><radialGradient id="paint0_radial_650_1849" cx="0" cy="0" r="1" gradientUnits="userSpaceOnUse" gradientTransform="rotate(10.764) scale(364.096 169.839)"><stop stop-color="#16D1D6"></stop><stop offset="1" stop-color="#274CFF"></stop></radialGradient></defs>
</svg>
