<?xml version="1.0" encoding="UTF-8" ?>
<!DOCTYPE svg PUBLIC "-//W3C//DTD SVG 1.1//EN" "http://www.w3.org/Graphics/SVG/1.1/DTD/svg11.dtd">
<svg width="204pt" height="40pt" viewBox="0 0 204 40" version="1.1" xmlns="http://www.w3.org/2000/svg">
<path fill="url(#paint0_radial_650_1850)" opacity="1.00" d=" M 181.87 18.92 C 187.35 13.09 195.72 11.93 203.15 10.30 C 196.86 15.21 196.09 24.85 188.56 28.38 C 183.90 31.08 176.21 27.00 175.94 36.22 C 178.76 29.40 182.89 23.45 188.30 18.35 L 183.19 22.82 C 182.04 24.33 179.74 27.35 178.59 28.85 C 178.51 25.30 179.26 21.51 181.87 18.92 Z" />
<path fill="url(#paint0_radial_650_1850)" opacity="1.00" d=" M 108.65 14.36 C 114.10 14.59 119.62 13.93 125.02 14.72 C 128.84 15.89 128.11 21.70 124.13 22.10 C 125.57 22.93 127.47 23.47 128.04 25.22 C 129.08 27.79 126.66 30.88 123.94 30.68 C 118.84 30.76 113.75 30.67 108.66 30.69 C 108.69 25.25 108.70 19.81 108.65 14.36 M 112.14 16.78 C 112.18 18.20 112.22 19.62 112.26 21.05 C 115.80 20.96 119.38 21.31 122.89 20.78 C 124.39 19.72 123.97 18.15 123.15 16.80 C 119.48 16.75 115.81 16.76 112.14 16.78 M 112.12 23.39 C 112.13 24.82 112.13 26.24 112.14 27.66 C 115.42 27.72 118.71 27.83 122.00 27.68 C 124.49 28.07 124.59 24.02 122.48 23.43 C 119.03 23.17 115.57 23.36 112.12 23.39 Z" />
<path fill="url(#paint0_radial_650_1850)" opacity="1.00" d=" M 139.23 13.95 C 145.25 12.85 150.80 19.77 148.17 25.40 C 146.18 31.08 137.93 32.60 134.13 27.88 C 129.68 23.25 132.79 14.62 139.23 13.95 M 138.41 18.33 C 135.93 19.47 135.13 23.06 136.96 25.10 C 138.74 27.49 143.03 27.16 144.28 24.39 C 146.63 20.96 141.92 16.12 138.41 18.33 Z" />
<path fill="url(#paint0_radial_650_1850)" opacity="1.00" d=" M 2.01 15.21 C 8.20 15.16 14.39 15.20 20.58 15.18 C 20.60 15.74 20.63 16.86 20.65 17.42 C 15.80 17.90 10.91 17.47 6.05 17.65 C 6.06 19.03 6.08 20.42 6.10 21.80 C 9.03 21.86 11.97 21.85 14.90 21.84 C 14.94 22.59 15.02 24.08 15.06 24.82 C 12.09 24.90 9.11 24.89 6.13 24.89 C 6.13 26.83 6.16 28.77 6.17 30.71 C 4.78 30.70 3.39 30.69 2.01 30.68 C 2.08 25.52 2.07 20.36 2.01 15.21 Z" />
<path fill="url(#paint0_radial_650_1850)" opacity="1.00" d=" M 24.50 15.41 C 26.07 15.38 27.64 15.37 29.21 15.36 C 29.18 20.48 29.18 25.60 29.20 30.71 C 27.64 30.70 26.08 30.69 24.52 30.67 C 24.59 25.58 24.61 20.50 24.50 15.41 Z" />
<path fill="url(#paint0_radial_650_1850)" opacity="1.00" d=" M 33.35 15.14 C 35.41 15.13 37.46 15.14 39.52 15.17 C 42.88 18.35 46.04 21.72 49.37 24.93 C 49.31 21.69 49.27 18.45 49.23 15.21 C 50.84 15.19 52.45 15.19 54.07 15.20 C 54.00 20.36 53.92 25.51 54.07 30.66 C 52.20 30.69 50.32 30.70 48.45 30.73 C 44.98 27.38 41.65 23.89 38.20 20.53 C 38.17 23.92 38.25 27.31 38.25 30.71 C 36.61 30.70 34.96 30.69 33.32 30.68 C 33.41 25.50 33.38 20.32 33.35 15.14 Z" />
<path fill="url(#paint0_radial_650_1850)" opacity="1.00" d=" M 58.06 15.25 C 64.40 15.15 70.73 15.20 77.06 15.22 C 77.08 15.89 77.11 17.24 77.13 17.92 C 72.40 18.19 67.66 17.98 62.92 18.12 C 62.98 18.86 63.09 20.34 63.15 21.08 C 65.96 21.08 68.76 21.07 71.57 21.06 C 71.63 22.20 71.68 23.33 71.73 24.46 C 68.81 24.51 65.89 24.49 62.97 24.53 C 62.97 25.32 62.97 26.90 62.98 27.69 C 67.68 27.79 72.38 27.73 77.09 27.74 C 77.09 28.48 77.09 29.95 77.09 30.68 C 70.73 30.68 64.38 30.77 58.03 30.63 C 58.23 25.51 58.19 20.37 58.06 15.25 Z" />
<path fill="url(#paint0_radial_650_1850)" opacity="1.00" d=" M 82.12 15.05 C 84.51 15.49 87.65 14.27 89.40 16.43 C 90.60 17.63 91.74 18.88 92.90 20.12 C 94.45 18.48 96.02 16.86 97.61 15.25 C 99.65 15.19 101.69 15.16 103.74 15.14 C 101.18 17.85 98.50 20.45 95.79 23.01 C 98.43 25.52 101.08 28.03 103.56 30.71 C 101.55 30.73 99.54 30.71 97.53 30.70 C 95.98 29.11 94.43 27.53 92.92 25.91 C 91.41 27.52 89.88 29.10 88.34 30.67 C 86.31 30.71 84.29 30.75 82.26 30.77 C 84.72 28.06 87.42 25.58 90.02 23.01 C 87.34 20.40 84.59 17.85 82.12 15.05 Z" />
<path fill="url(#paint0_radial_650_1850)" opacity="1.00" d=" M 151.55 15.20 C 153.54 15.17 155.54 15.18 157.53 15.17 C 159.17 16.75 160.77 18.37 162.34 20.02 C 163.97 18.41 165.58 16.80 167.22 15.20 C 169.19 15.18 171.17 15.15 173.15 15.13 C 170.67 17.87 167.94 20.38 165.33 23.00 C 167.85 25.63 170.60 28.02 173.03 30.74 C 171.02 30.75 169.02 30.71 167.02 30.69 C 165.48 29.12 163.92 27.57 162.36 26.03 C 160.82 27.61 159.26 29.18 157.67 30.72 C 155.69 30.71 153.72 30.73 151.76 30.70 C 154.23 28.04 156.88 25.55 159.48 23.02 C 156.79 20.46 154.17 17.84 151.55 15.20 Z" />
<defs><radialGradient id="paint0_radial_650_1850" cx="0" cy="0" r="1" gradientUnits="userSpaceOnUse" gradientTransform="rotate(10.764) scale(364.096 169.839)"><stop stop-color="#16D1D6"></stop><stop offset="1" stop-color="#274CFF"></stop></radialGradient></defs>

</svg>
