<svg width="80" height="80" viewBox="0 0 80 80" fill="none" xmlns="http://www.w3.org/2000/svg"><path fill-rule="evenodd" clip-rule="evenodd" d="M23.6381 36.3532C23.5238 36.392 4.15238 11.5237 4.0381 11.1746C4 11.0776 9.61905 11 17.4667 11H30.9524L37.6762 19.7485L44.381 28.497L43.8667 29.2147C43.7912 29.3108 43.3817 29.8386 42.7056 30.7101C40.6512 33.3582 36.1351 39.1792 31.0476 45.703C24.2857 54.3545 18.7429 61.5317 18.7048 61.6481C18.6667 61.7451 20.3429 61.8227 23.0286 61.8227H27.4095L30.0381 58.6414C31.4857 56.8762 32.7048 55.4408 32.7619 55.4408C32.8762 55.4408 37.0857 60.6976 37.1619 60.9304C37.181 61.0274 35.8095 62.8896 34.0953 65.0428L30.9714 69H17.4857C10.0762 69 4 68.9612 4 68.903C4 68.8254 32.1524 32.8421 34.9714 29.3311L35.6 28.5552L31.5048 23.3565L27.4095 18.1772H23.0476C20.6286 18.1772 18.6667 18.2354 18.6667 18.2936C18.6667 18.3518 20.7429 21.1257 23.2762 24.4622C24.3821 25.9212 25.4143 27.2789 26.2302 28.352C27.2692 29.7186 27.9573 30.6237 28 30.6889C28.1333 30.8635 23.981 36.2368 23.6381 36.3532ZM42.8196 19.0113C42.8196 18.9338 44.2101 17.0909 45.9244 14.9184L49.0291 11H62.5149C69.9244 11 76.0006 11.0388 76.0006 11.097C76.0006 11.1552 68.9339 20.2722 60.2863 31.3679C51.6387 42.4441 44.572 51.6194 44.572 51.7164C44.572 51.8328 46.3815 54.1605 48.591 56.8762L52.591 61.8227H56.972C59.372 61.8227 61.3339 61.7645 61.3339 61.7063C61.3339 61.6481 59.2577 58.8742 56.7244 55.5378C54.2101 52.2207 52.0768 49.408 52.0006 49.311C51.8672 49.1364 56.0196 43.7632 56.3625 43.6468C56.4768 43.608 75.8482 68.4762 75.9625 68.8254C76.0006 68.9224 70.3815 69 62.5339 69H49.0482L42.3815 60.4455C38.7053 55.7318 35.7148 51.8134 35.7148 51.7358C35.7148 51.6388 41.4672 44.1318 48.4768 35.0535C55.5053 25.9752 61.2768 18.4682 61.2958 18.3712C61.3339 18.2548 59.6768 18.1772 56.972 18.1772H52.591L49.9625 21.3585C48.5148 23.1237 47.2958 24.5592 47.2387 24.5592C47.1053 24.5592 42.8387 19.2053 42.8196 19.0113Z" fill="url(#paint0_radial_695_3548)"></path><defs><radialGradient id="paint0_radial_695_3548" cx="0" cy="0" r="1" gradientUnits="userSpaceOnUse" gradientTransform="translate(4 11) rotate(9.21038) scale(362.364 145.556)"><stop stop-color="#16D1D6"></stop><stop offset="1" stop-color="#274CFF"></stop></radialGradient></defs></svg>